<?xml version="1.0" standalone="no"?>
<!DOCTYPE svg PUBLIC "-//W3C//DTD SVG 20010904//EN"
 "http://www.w3.org/TR/2001/REC-SVG-20010904/DTD/svg10.dtd">
<svg version="1.0" xmlns="http://www.w3.org/2000/svg"
 width="1024.000000pt" height="1024.000000pt" viewBox="0 0 1024.000000 1024.000000"
 preserveAspectRatio="xMidYMid meet">

<g transform="translate(0.000000,1024.000000) scale(0.100000,-0.100000)"
fill="#000000" stroke="none">
<path d="M4060 8090 l0 -270 119 0 c99 0 120 -3 125 -16 3 -9 6 -123 6 -255
l0 -239 -220 0 -220 0 0 135 0 135 -282 -6 c-156 -4 -328 -9 -383 -13 l-100
-6 -3 -242 -2 -242 110 -3 111 -3 1 -90 c0 -49 0 -102 -1 -116 l-1 -27 -245
-7 -245 -7 0 -134 0 -134 -120 0 -120 0 0 -130 0 -130 -120 0 -121 0 3 -260 3
-260 -85 0 c-47 0 -109 -3 -139 -7 l-53 -6 6 -566 c4 -311 9 -759 12 -996 l5
-430 97 0 c53 0 115 3 137 6 l40 6 0 -271 0 -271 117 -3 118 -3 0 -140 0 -140
120 3 120 3 0 -128 0 -128 123 2 122 3 2 -30 c2 -16 4 -78 5 -139 l3 -110 195
3 c107 1 214 5 237 8 l42 5 3 -123 3 -123 228 4 227 3 0 -141 0 -142 990 2
990 2 1 129 c1 70 2 133 3 140 1 8 70 11 260 9 l258 -2 -5 33 c-3 18 -9 70
-13 115 l-6 81 255 4 c140 2 258 6 261 9 4 3 9 65 13 138 l6 131 124 0 123 0
0 120 0 120 120 0 120 0 2 113 c1 61 2 127 3 145 l0 32 148 0 147 0 0 265 0
265 135 0 135 0 0 995 0 995 -137 0 -138 0 3 263 4 264 -54 6 c-29 4 -94 7
-144 7 l-92 0 -7 125 -7 125 -119 1 c-65 1 -125 2 -131 3 -10 1 -12 32 -11
126 l2 125 -279 -3 -280 -4 0 131 0 131 88 0 c48 0 117 3 155 7 l67 6 -2 236
-3 236 -175 8 c-96 4 -273 13 -394 20 -184 10 -219 10 -224 -1 -3 -8 -2 -70 1
-138 l6 -124 -236 0 c-210 0 -234 2 -229 16 3 9 6 118 6 242 l0 227 47 0 c27
0 89 2 138 3 l90 2 2 281 1 280 -256 -4 -257 -4 -3 -126 -3 -127 -129 0 -130
0 0 -145 0 -145 125 0 125 0 0 135 0 135 28 -1 c20 -1 22 -3 7 -6 -18 -3 -21
-11 -20 -61 0 -31 5 -63 9 -71 7 -10 5 -12 -3 -6 -10 6 -12 -7 -11 -56 1 -35
2 -229 1 -431 l-1 -368 -119 0 c-86 0 -121 -3 -124 -12 -2 -7 -8 -9 -13 -5 -5
5 -1 15 10 23 11 8 15 14 10 14 -6 0 -19 7 -30 15 -13 11 -14 14 -4 13 11 -2
15 5 14 27 -3 97 -4 132 -3 145 0 8 0 29 -1 45 0 17 0 48 1 70 0 22 0 43 -1
48 -6 20 -5 33 5 40 5 5 -8 6 -30 3 -38 -6 -39 -6 -16 8 14 8 32 11 40 8 9 -3
12 -1 7 6 -5 8 -45 12 -122 12 l-114 0 0 -229 c0 -143 4 -232 10 -236 6 -3 10
-12 10 -18 0 -7 -4 -6 -10 3 -7 10 -10 -30 -9 -127 1 -97 5 -143 12 -147 7 -2
4 -5 -5 -5 -17 -1 -18 24 -18 384 l0 385 120 0 121 0 -3 133 -3 132 -140 6
c-77 4 -177 7 -222 8 l-83 1 0 135 0 135 -125 0 -125 0 0 130 0 130 -260 0
-260 0 0 -270z m1573 -17 c-7 -2 -21 -2 -30 0 -10 3 -4 5 12 5 17 0 24 -2 18
-5z m82 -3 c3 -5 2 -10 -4 -10 -5 0 -13 5 -16 10 -3 6 -2 10 4 10 5 0 13 -4
16 -10z m55 -130 l0 -130 -79 0 c-44 0 -82 4 -85 8 -3 5 31 6 75 4 l80 -4 -2
120 c-1 103 -3 122 -17 125 -12 3 -10 5 6 6 22 1 22 -1 22 -129z m-665 -428
c-3 -3 -11 0 -18 7 -9 10 -8 11 6 5 10 -3 15 -9 12 -12z m85 8 c0 -5 -7 -7
-15 -4 -8 4 -15 8 -15 10 0 2 7 4 15 4 8 0 15 -4 15 -10z m-45 -30 c3 -6 -1
-7 -9 -4 -18 7 -21 14 -7 14 6 0 13 -4 16 -10z m115 -17 c0 -3 -7 -3 -15 1 -8
3 -15 1 -15 -5 0 -6 -5 -7 -11 -3 -8 4 -7 9 2 14 12 8 39 3 39 -7z m-140 -7
c0 -2 -7 -7 -16 -10 -8 -3 -12 -2 -9 4 6 10 25 14 25 6z m53 -16 c-3 -11 -9
-17 -14 -15 -10 7 -1 35 11 35 5 0 6 -9 3 -20z m37 -6 c0 -14 -12 -19 -23 -8
-9 9 4 35 14 28 5 -3 9 -12 9 -20z m-80 -4 c0 -5 -2 -10 -4 -10 -3 0 -8 5 -11
10 -3 6 -1 10 4 10 6 0 11 -4 11 -10z m120 6 c0 -3 -4 -8 -10 -11 -5 -3 -10
-1 -10 4 0 6 5 11 10 11 6 0 10 -2 10 -4z m-95 -26 c3 -5 1 -10 -4 -10 -6 0
-11 5 -11 10 0 6 2 10 4 10 3 0 8 -4 11 -10z m73 -28 c-8 -9 -14 -9 -24 -1 -9
7 -19 7 -36 -1 -22 -10 -22 -10 -4 4 23 19 80 17 64 -2z m42 3 c0 -8 -2 -15
-4 -15 -2 0 -6 7 -10 15 -3 8 -1 15 4 15 6 0 10 -7 10 -15z m-130 -19 c0 -2
-7 -7 -16 -10 -8 -3 -12 -2 -9 4 6 10 25 14 25 6z m117 -28 c2 -17 0 -19 -7
-8 -5 8 -6 18 -4 22 8 12 10 10 11 -14z m-46 3 c-7 -5 -11 -14 -7 -20 5 -7 1
-9 -9 -5 -12 5 -13 9 -4 20 6 8 17 14 23 14 6 0 5 -4 -3 -9z m-138 -16 c-3 -9
-8 -14 -10 -11 -3 3 -2 9 2 15 9 16 15 13 8 -4z m167 -25 c0 -5 -5 -10 -11
-10 -5 0 -7 5 -4 10 3 6 8 10 11 10 2 0 4 -4 4 -10z m-1457 -9 l57 -1 0 -110
0 -110 -212 -1 c-117 -1 -226 -2 -243 -3 -35 -1 -37 7 -28 144 l6 85 181 -2
c99 -1 207 -2 239 -2z m1307 -1 c0 -5 -5 -10 -11 -10 -5 0 -7 5 -4 10 3 6 8
10 11 10 2 0 4 -4 4 -10z m1630 -107 l0 -118 -235 -3 -235 -3 0 54 c0 30 -3
82 -6 115 l-7 62 239 3 c131 1 240 3 242 5 1 1 2 -51 2 -115z m-1464 92 c-20
-15 -20 -15 0 -30 10 -8 14 -15 9 -15 -15 0 -35 21 -35 36 0 11 14 18 40 23 3
0 -4 -6 -14 -14z m-109 -36 c-9 -6 -14 -15 -11 -21 5 -7 2 -8 -5 -4 -9 6 -8
13 5 27 9 11 20 17 23 13 3 -3 -2 -10 -12 -15z m51 -18 c-7 -11 -19 -16 -30
-13 -25 6 -23 19 5 18 13 -1 21 4 19 12 -1 8 2 11 8 7 6 -4 6 -12 -2 -24z
m-98 -31 c-6 -12 -14 -20 -17 -17 -2 3 1 14 8 26 17 26 24 19 9 -9z m113 -51
c-8 -8 -13 -7 -18 2 -5 8 -4 10 3 5 17 -10 15 9 -1 23 -8 6 -18 7 -22 3 -5 -4
-5 -1 0 7 6 10 12 9 28 -8 16 -15 18 -24 10 -32z m51 23 c3 -5 -1 -9 -9 -9 -8
0 -15 4 -15 9 0 4 4 8 9 8 6 0 12 -4 15 -8z m-144 -16 c0 -2 -7 -7 -16 -10 -8
-3 -12 -2 -9 4 6 10 25 14 25 6z m113 -40 c4 -10 1 -13 -9 -9 -15 6 -19 23 -5
23 5 0 11 -7 14 -14z m-923 -179 c0 -74 -4 -126 -9 -123 -5 3 -7 24 -4 46 4
27 2 40 -6 40 -7 0 -10 -10 -7 -25 3 -15 1 -23 -5 -20 -5 4 -7 11 -4 16 4 5 1
9 -4 9 -6 0 -11 7 -11 15 0 8 -7 15 -16 15 -14 0 -14 3 -4 15 13 16 35 21 26
6 -3 -5 3 -11 14 -14 18 -5 20 0 18 56 -2 73 -4 81 -22 64 -8 -6 -12 -14 -11
-17 7 -11 -14 -34 -22 -26 -4 5 -2 11 5 13 13 5 7 23 -9 23 -6 0 -7 -4 -4 -10
3 -5 1 -10 -4 -10 -6 0 -11 9 -11 20 0 16 -6 19 -35 18 -28 -1 -35 -5 -35 -21
0 -14 3 -17 13 -10 24 19 47 23 47 8 0 -9 -6 -12 -15 -9 -9 4 -15 0 -15 -8 0
-8 -7 -15 -15 -15 -8 0 -15 5 -15 11 0 6 -4 5 -9 -3 -6 -9 -11 -10 -15 -2 -4
6 -2 11 3 11 6 0 11 9 11 20 0 14 -7 20 -22 20 -19 0 -20 -2 -8 -10 9 -6 10
-10 3 -10 -6 0 -15 5 -18 10 -3 6 -11 10 -16 10 -6 0 -7 -5 -3 -11 4 -6 8 -61
9 -123 2 -61 7 -110 11 -109 5 1 7 -21 6 -48 -3 -36 0 -49 10 -49 11 0 11 -2
-1 -9 -10 -7 -11 -13 -2 -30 10 -17 9 -20 -4 -15 -11 5 -15 23 -15 75 l0 69
-126 0 -126 0 6 31 c3 17 6 79 6 136 l0 105 230 -4 230 -3 0 -128z m798 98
c-3 -3 -9 2 -12 12 -6 14 -5 15 5 6 7 -7 10 -15 7 -18z m147 -3 c-3 -3 -11 0
-18 7 -9 10 -8 11 6 5 10 -3 15 -9 12 -12z m36 -29 c-9 -16 -10 -16 -11 -1 0
9 3 25 7 35 7 16 8 17 11 1 2 -10 -1 -25 -7 -35z m-136 28 c3 -5 2 -12 -3 -15
-5 -3 -9 1 -9 9 0 17 3 19 12 6z m1095 -61 c0 -57 -3 -71 -19 -79 -10 -6 -21
-7 -25 -4 -4 4 -9 -3 -13 -15 -3 -12 -10 -22 -15 -22 -5 0 -7 4 -4 9 3 5 -8
11 -24 15 -27 5 -29 8 -18 25 7 11 16 17 21 14 5 -3 3 -9 -4 -14 -25 -15 0
-22 33 -9 35 14 67 38 35 27 -10 -4 -16 -3 -13 2 3 5 -1 14 -8 20 -10 8 -16 9
-21 1 -3 -5 -1 -10 4 -10 6 0 11 -7 11 -15 0 -8 -4 -15 -9 -15 -12 0 -22 43
-12 53 9 9 41 -1 41 -15 0 -5 5 -6 10 -3 6 4 7 11 4 17 -4 6 -2 8 3 5 7 -4 9
5 7 26 -1 17 -3 35 -3 40 -1 4 -10 7 -22 7 -11 0 -17 -4 -14 -10 3 -5 1 -10
-4 -10 -6 0 -11 4 -11 9 0 13 -103 9 -112 -4 -5 -6 -8 -5 -8 3 0 19 -20 14
-21 -5 0 -15 -2 -15 -9 2 -5 11 -9 15 -9 9 -1 -6 -7 -11 -14 -11 -7 0 -25 -3
-40 -7 -15 -3 -27 -3 -27 2 0 4 12 9 27 10 14 1 29 5 32 8 3 3 -38 4 -92 3
-53 -1 -97 -6 -97 -11 0 -5 4 -7 9 -3 5 3 12 1 16 -5 3 -5 -2 -10 -12 -10 -13
0 -18 -8 -18 -25 0 -15 5 -23 11 -21 6 2 17 -1 24 -7 10 -9 11 -9 6 0 -3 6 -2
14 2 17 5 3 8 -5 7 -17 -3 -31 -3 -31 -20 -17 -16 14 -39 4 -28 -13 3 -6 5
-33 4 -59 l-2 -48 33 -1 c18 0 47 -1 65 -2 17 -1 30 0 28 3 -2 3 4 11 12 19
13 12 14 11 9 -6 -7 -21 -8 -20 92 -14 22 1 22 2 7 31 -19 36 -19 45 -1 28 8
-7 12 -16 10 -19 -2 -4 3 -10 12 -13 8 -3 13 -10 10 -14 -3 -5 6 -7 19 -4 27
5 32 20 13 42 -11 12 -10 12 3 2 9 -6 18 -9 21 -6 3 2 8 -2 12 -11 3 -9 2 -13
-4 -10 -6 3 -10 2 -10 -4 0 -13 19 -18 47 -13 18 3 22 9 18 26 -5 18 -4 17 10
-4 l16 -25 -4 33 c-2 18 0 31 5 30 5 -2 9 -7 9 -11 -1 -4 -1 -20 -1 -35 l0
-29 -107 -2 c-59 -1 -111 -5 -116 -8 -4 -3 -7 -30 -6 -62 1 -31 2 -84 1 -118
l-2 -62 -115 -3 c-63 -2 -115 0 -115 5 0 4 5 7 12 7 6 0 9 2 6 5 -2 3 -19 -2
-37 -11 -27 -13 -34 -14 -48 -2 -12 9 -15 9 -9 1 4 -7 3 -13 -3 -13 -22 0 -21
21 1 29 13 5 30 17 38 27 14 18 14 18 -3 5 -9 -8 -20 -11 -24 -8 -3 4 -17 -2
-31 -13 -27 -22 -45 -18 -35 6 5 13 8 13 15 2 7 -9 8 -8 4 5 -4 14 -2 17 12
13 9 -3 23 -2 30 3 10 6 8 10 -10 15 -14 5 -18 9 -10 13 6 2 9 10 6 15 -4 7
-2 8 4 4 7 -4 12 -2 12 4 0 6 5 8 10 5 6 -3 10 -1 10 4 0 6 -5 11 -11 11 -6 0
-9 6 -6 14 4 10 -5 15 -31 19 -20 2 -38 3 -39 3 -1 -1 1 -12 4 -25 5 -21 7
-22 18 -8 11 15 14 15 31 1 19 -15 18 -15 -2 -9 -17 4 -20 1 -18 -25 1 -22 -3
-31 -20 -37 -11 -4 -27 -6 -35 -4 -7 1 -10 -2 -7 -8 4 -5 3 -12 -2 -14 -4 -3
-12 6 -19 19 -8 17 -8 26 -1 31 7 3 8 1 4 -5 -4 -7 -1 -12 8 -12 13 0 14 3 5
18 -18 29 -38 23 -34 -9 5 -37 -12 -47 -19 -12 -6 33 -3 64 8 81 4 6 3 12 -2
12 -6 0 -6 9 1 23 10 22 16 23 79 21 37 -1 66 2 63 6 -3 5 -38 8 -78 8 -134 0
-123 6 22 12 l143 5 -1 127 -2 128 230 0 231 0 0 -70z m-386 39 c-3 -6 0 -15
7 -20 9 -6 10 -9 2 -9 -15 0 -26 17 -18 30 3 6 8 10 11 10 3 0 2 -5 -2 -11z
m59 -1 c-2 -5 -10 -8 -18 -8 -8 0 -16 3 -18 8 -3 4 5 7 18 7 13 0 21 -3 18 -7z
m197 1 c0 -5 -4 -7 -10 -4 -5 3 -10 -1 -10 -9 0 -20 9 -20 34 -1 20 15 41 11
31 -6 -4 -5 -1 -9 4 -9 6 0 11 5 11 11 0 5 5 7 11 3 6 -3 15 0 20 7 6 10 8 8
6 -8 -1 -13 -8 -22 -17 -21 -34 3 -50 -3 -50 -17 0 -8 -4 -15 -9 -15 -5 0 -11
-8 -13 -17 -3 -17 -4 -17 -11 0 -4 11 1 25 14 38 11 11 18 23 15 27 -13 13
-39 -28 -38 -60 1 -30 -2 -34 -25 -36 -15 -1 -23 1 -19 5 4 5 13 8 19 8 5 0
12 6 15 13 3 10 -2 10 -22 1 -14 -7 -26 -17 -26 -22 0 -6 -2 -8 -5 -5 -9 8 6
38 16 32 5 -3 9 3 10 13 0 11 3 13 6 5 6 -15 23 -6 23 13 0 9 -6 12 -15 9 -8
-4 -15 -1 -15 6 0 6 5 8 12 4 7 -5 9 -2 5 8 -3 9 0 21 6 27 14 14 27 14 27 0z
m-940 -14 c-7 -9 -15 -13 -19 -10 -3 3 1 10 9 15 21 14 24 12 10 -5z m66 -13
c-17 -16 -18 -16 -5 5 7 12 15 20 18 17 3 -2 -3 -12 -13 -22z m-974 3 c19 5
20 4 8 -5 -11 -9 -12 -13 -2 -17 22 -9 13 -24 -12 -17 -13 3 -27 1 -30 -5 -4
-5 -14 -7 -24 -4 -13 5 -15 4 -7 -8 6 -8 2 -6 -8 4 -21 23 -16 33 10 19 13 -7
24 -6 36 3 18 13 17 14 -2 20 -12 3 -21 11 -21 17 0 7 5 6 15 -2 8 -6 24 -9
37 -5z m1791 8 c-7 -2 -13 -11 -13 -19 0 -9 -4 -12 -10 -9 -5 3 -10 1 -10 -6
0 -7 -3 -9 -7 -6 -8 9 26 47 41 46 6 0 6 -3 -1 -6z m-933 -18 c-7 -8 -16 -12
-21 -9 -13 8 -1 24 18 24 13 0 13 -3 3 -15z m785 -4 c-3 -6 -11 -11 -16 -11
-5 0 -4 6 3 14 14 16 24 13 13 -3z m-1765 -3 c0 -4 -11 -7 -24 -6 -14 1 -23 6
-20 9 6 10 44 7 44 -3z m1120 8 c0 -2 -8 -10 -17 -17 -16 -13 -17 -12 -4 4 13
16 21 21 21 13z m30 -16 c0 -5 -2 -10 -4 -10 -3 0 -8 5 -11 10 -3 6 -1 10 4
10 6 0 11 -4 11 -10z m710 6 c0 -2 -9 -6 -20 -9 -11 -3 -20 -1 -20 4 0 5 9 9
20 9 11 0 20 -2 20 -4z m-72 -22 c12 -4 22 -9 22 -13 0 -12 -36 -7 -49 6 -13
14 -7 16 27 7z m-1764 -19 c-4 -9 0 -15 9 -15 8 0 20 -7 27 -15 11 -13 10 -14
-3 -9 -12 4 -15 1 -12 -15 3 -18 1 -19 -18 -8 -30 17 -47 34 -40 40 3 3 12 -1
20 -9 8 -8 19 -11 24 -8 6 3 3 11 -7 18 -9 7 -14 18 -10 24 10 17 16 15 10 -3z
m1121 5 c3 -5 1 -10 -4 -10 -6 0 -11 5 -11 10 0 6 2 10 4 10 3 0 8 -4 11 -10z
m-145 -30 c0 -4 -6 -10 -13 -13 -8 -3 -13 3 -13 19 0 18 3 21 13 12 7 -6 13
-14 13 -18z m718 -5 c0 -30 -15 -42 -31 -25 -9 9 -9 11 3 8 8 -2 15 4 16 12 3
39 12 42 12 5z m46 9 c5 -14 4 -15 -9 -4 -17 14 -19 20 -6 20 5 0 12 -7 15
-16z m96 6 c0 -5 -2 -10 -4 -10 -3 0 -8 5 -11 10 -3 6 -1 10 4 10 6 0 11 -4
11 -10z m-826 -16 c3 -8 2 -12 -4 -9 -6 3 -10 10 -10 16 0 14 7 11 14 -7z
m791 6 c3 -5 1 -10 -4 -10 -6 0 -11 5 -11 10 0 6 2 10 4 10 3 0 8 -4 11 -10z
m-764 -47 c-12 -20 -14 -14 -5 12 4 9 9 14 11 11 3 -2 0 -13 -6 -23z m744 8
c-3 -6 -11 -8 -17 -5 -6 4 -5 9 3 15 16 10 23 4 14 -10z m-1786 -38 c10 -8 11
-12 4 -13 -13 0 -43 38 -43 55 0 5 6 1 12 -10 6 -11 19 -25 27 -32z m91 38 c0
-9 -38 -12 -44 -3 -2 4 7 8 20 8 13 1 24 -1 24 -5z m1000 5 c0 -2 -7 -9 -15
-16 -13 -11 -14 -10 -9 4 5 14 24 23 24 12z m660 -6 c0 -5 -2 -10 -4 -10 -3 0
-8 5 -11 10 -3 6 -1 10 4 10 6 0 11 -4 11 -10z m84 2 c3 -5 -1 -9 -9 -9 -8 0
-12 4 -9 9 3 4 7 8 9 8 2 0 6 -4 9 -8z m101 -12 c3 -6 -1 -7 -9 -4 -18 7 -21
14 -7 14 6 0 13 -4 16 -10z m-919 -9 c-7 -11 22 -23 35 -16 5 4 6 -1 3 -9 -3
-9 -12 -12 -22 -9 -27 10 -44 43 -21 43 5 0 8 -4 5 -9z m854 -6 c11 -13 10
-14 -4 -9 -9 3 -16 10 -16 15 0 13 6 11 20 -6z m-1800 -10 c-7 -9 -15 -13 -19
-10 -3 3 1 10 9 15 21 14 24 12 10 -5z m46 -32 c-3 -3 0 -13 7 -22 10 -14 10
-14 -5 -3 -9 8 -15 19 -12 27 3 7 1 16 -5 20 -6 3 -11 1 -11 -6 0 -7 -2 -10
-5 -7 -3 3 -3 13 1 22 6 15 8 15 21 -4 8 -12 12 -24 9 -27z m1624 37 c0 -5 -2
-10 -4 -10 -3 0 -8 5 -11 10 -3 6 -1 10 4 10 6 0 11 -4 11 -10z m-767 -15 c-3
-9 -8 -14 -10 -11 -3 3 -2 9 2 15 9 16 15 13 8 -4z m-1003 -15 c0 -5 -5 -10
-11 -10 -5 0 -7 5 -4 10 3 6 8 10 11 10 2 0 4 -4 4 -10z m70 0 c0 -5 -2 -10
-4 -10 -3 0 -8 5 -11 10 -3 6 -1 10 4 10 6 0 11 -4 11 -10z m108 -108 c-3 -78
-3 -79 -23 -60 -18 18 -18 19 -1 12 17 -7 18 -1 15 74 -2 44 -1 74 4 67 4 -8
7 -50 5 -93z m807 98 c4 -6 -6 -10 -22 -9 -25 0 -26 1 -8 9 11 5 21 9 22 9 1
1 5 -3 8 -9z m175 0 c0 -5 8 -10 18 -11 10 0 12 -3 5 -6 -9 -3 -13 -30 -13
-84 0 -56 3 -78 11 -73 6 3 5 -4 -3 -17 -12 -22 -13 -13 -16 79 -2 94 -4 102
-22 102 -11 0 -20 5 -20 10 0 6 9 10 20 10 11 0 20 -4 20 -10z m-72 -7 c-15
-2 -42 -2 -60 0 -18 2 -6 4 27 4 33 0 48 -2 33 -4z m-1013 -13 c-3 -5 -12 -10
-18 -10 -7 0 -6 4 3 10 19 12 23 12 15 0z m1201 1 c-3 -4 -17 -6 -31 -3 -18 3
-25 0 -25 -12 0 -10 -5 -13 -16 -9 -15 6 -15 8 2 20 20 14 78 18 70 4z m84 -2
c0 -5 -9 -9 -20 -9 -11 0 -20 4 -20 8 0 4 9 8 20 9 11 1 20 -2 20 -8z m-1256
-7 c3 -5 -1 -9 -9 -9 -8 0 -12 4 -9 9 3 4 7 8 9 8 2 0 6 -4 9 -8z m-104 -16
c0 -3 -4 -8 -10 -11 -5 -3 -10 -1 -10 4 0 6 5 11 10 11 6 0 10 -2 10 -4z m27
-21 c-23 -22 -33 -18 -12 5 10 11 20 18 23 16 2 -3 -3 -12 -11 -21z m30 3 c-3
-8 -6 -5 -6 6 -1 11 2 17 5 13 3 -3 4 -12 1 -19z m103 12 c0 -5 -5 -10 -11
-10 -5 0 -7 5 -4 10 3 6 8 10 11 10 2 0 4 -4 4 -10z m1200 0 c0 -5 -5 -10 -11
-10 -5 0 -7 5 -4 10 3 6 8 10 11 10 2 0 4 -4 4 -10z m-1260 -15 c11 -13 10
-14 -4 -9 -9 3 -16 10 -16 15 0 13 6 11 20 -6z m1150 -16 c0 -5 -4 -7 -10 -4
-5 3 -10 1 -10 -6 0 -7 -3 -10 -6 -6 -8 7 4 27 17 27 5 0 9 -5 9 -11z m-1230
-19 c0 -5 -7 -7 -15 -4 -8 4 -15 8 -15 10 0 2 7 4 15 4 8 0 15 -4 15 -10z m90
0 c0 -5 -5 -10 -11 -10 -5 0 -7 5 -4 10 3 6 8 10 11 10 2 0 4 -4 4 -10z m-36
-26 c5 -14 4 -15 -9 -4 -17 14 -19 20 -6 20 5 0 12 -7 15 -16z m1206 5 c0 -4
-9 -7 -19 -6 -11 0 -18 4 -16 7 6 9 35 8 35 -1z m-1261 -8 c7 -5 12 -13 10
-18 -2 -5 -12 -1 -21 9 -19 19 -13 24 11 9z m1181 5 c0 -3 -4 -8 -10 -11 -5
-3 -10 -1 -10 4 0 6 5 11 10 11 6 0 10 -2 10 -4z m-1056 -49 c24 -9 19 -26 -6
-19 -17 4 -20 2 -15 -11 4 -11 2 -14 -9 -10 -18 7 -18 13 4 30 16 13 16 14 -3
9 -11 -3 -27 -1 -35 5 -11 8 -9 9 9 4 19 -6 23 -4 18 8 -3 8 -3 18 1 21 3 4 9
-2 13 -12 4 -11 14 -22 23 -25z m-182 -11 c0 -20 4 -36 9 -36 5 0 9 7 9 15 0
9 6 12 17 8 11 -4 12 -8 5 -11 -17 -5 -15 -22 3 -22 8 0 15 6 15 13 0 8 3 9 8
1 4 -6 37 -12 74 -13 56 -1 67 1 71 16 4 14 5 13 6 -4 1 -23 -1 -23 -114 -23
l-115 0 0 52 c0 28 3 49 6 45 3 -3 6 -22 6 -41z m45 28 c-3 -3 -12 -4 -19 -1
-8 3 -5 6 6 6 11 1 17 -2 13 -5z m53 -45 c0 -5 -5 -9 -11 -9 -5 0 -7 5 -4 10
3 6 -1 10 -10 10 -9 0 -13 5 -10 10 7 12 35 -5 35 -21z m1190 7 c0 -3 -4 -8
-10 -11 -5 -3 -10 -1 -10 4 0 6 5 11 10 11 6 0 10 -2 10 -4z m246 -23 c0 -11
6 -17 17 -17 9 1 17 -2 17 -6 0 -5 -20 -8 -44 -8 l-43 0 21 24 c25 28 34 30
32 7z m-72 -9 c5 -14 4 -15 -9 -4 -17 14 -19 20 -6 20 5 0 12 -7 15 -16z m36
6 c0 -5 -4 -10 -10 -10 -5 0 -10 5 -10 10 0 6 5 10 10 10 6 0 10 -4 10 -10z
m-280 -4 c0 -3 -4 -8 -10 -11 -5 -3 -10 -1 -10 4 0 6 5 11 10 11 6 0 10 -2 10
-4z m60 0 c0 -15 -36 -36 -58 -35 -26 1 -26 1 5 10 18 5 35 14 38 19 6 10 15
13 15 6z m40 -20 c0 -2 -7 -7 -16 -10 -8 -3 -12 -2 -9 4 6 10 25 14 25 6z m80
-12 c0 -2 -17 -4 -37 -3 -33 1 -35 2 -13 8 23 7 50 4 50 -5z m-752 -1 c-32 -2
-86 -2 -120 0 -35 2 -9 3 57 3 66 0 94 -1 63 -3z m302 -118 l0 -125 -162 0
c-89 0 -159 3 -155 6 3 4 25 6 49 6 23 -1 46 5 50 11 6 9 8 9 8 0 0 -9 16 -13
45 -13 36 0 45 4 46 18 1 15 2 15 6 1 2 -10 13 -16 28 -15 12 0 21 4 18 9 -2
4 1 7 6 7 6 0 11 -4 11 -10 0 -5 9 -10 20 -10 18 0 20 7 20 68 0 41 -5 73 -12
81 -8 8 -8 11 -2 8 8 -5 11 6 11 33 -1 44 -19 53 -44 23 -12 -15 -14 -15 -10
-2 5 14 -6 17 -80 17 -47 1 -88 4 -91 7 -3 3 49 5 116 5 l122 0 0 -125z m-170
95 c0 -5 -2 -10 -4 -10 -3 0 -8 5 -11 10 -3 6 -1 10 4 10 6 0 11 -4 11 -10z
m100 -50 c0 -5 -5 -10 -11 -10 -5 0 -7 5 -4 10 3 6 8 10 11 10 2 0 4 -4 4 -10z
m-99 -14 c-10 -11 -8 -15 6 -18 10 -2 23 2 28 9 7 9 14 10 25 2 13 -9 12 -10
-2 -5 -11 3 -19 -2 -23 -14 -6 -18 -8 -19 -31 -4 -19 13 -22 20 -13 30 6 8 14
14 16 14 3 0 0 -6 -6 -14z m-246 -6 c3 -5 1 -10 -4 -10 -6 0 -11 5 -11 10 0 6
2 10 4 10 3 0 8 -4 11 -10z m357 -12 c-6 -6 -15 -8 -19 -4 -4 4 -1 11 7 16 19
12 27 3 12 -12z m-415 -70 c-3 -7 -5 -2 -5 12 0 14 2 19 5 13 2 -7 2 -19 0
-25z m414 9 c-10 -9 -11 -8 -5 6 3 10 9 15 12 12 3 -3 0 -11 -7 -18z m-117
-13 c3 -8 2 -12 -4 -9 -6 3 -10 10 -10 16 0 14 7 11 14 -7z m151 -18 c0 -14
-3 -22 -7 -20 -4 3 -8 17 -8 31 0 32 13 22 15 -11z m-441 -31 c3 -8 1 -15 -4
-15 -6 0 -10 7 -10 15 0 8 2 15 4 15 2 0 6 -7 10 -15z m64 -12 c-10 -2 -26 -2
-35 0 -10 3 -2 5 17 5 19 0 27 -2 18 -5z m1258 -25 c1 -16 -2 -28 -7 -28 -5 0
-9 6 -9 14 0 18 -31 30 -40 16 -5 -8 -10 -5 -14 6 -6 16 -8 16 -16 4 -13 -20
-13 -53 0 -45 6 4 10 -5 10 -19 0 -14 4 -26 9 -26 4 0 6 11 4 24 -6 30 13 43
35 23 22 -20 33 -22 42 -8 11 19 42 1 37 -20 -6 -23 11 -26 20 -4 3 9 -3 25
-12 35 -11 12 -13 20 -7 20 24 0 11 19 -15 23 -16 2 51 5 149 6 l176 1 1 -129
2 -129 -118 3 c-65 2 -172 4 -238 4 l-120 1 0 131 0 130 54 -3 c50 -3 54 -5
57 -30z m-1336 0 c1 -7 3 -64 6 -125 l6 -113 -24 1 c-16 1 -18 3 -5 6 9 2 17
9 17 14 0 6 -4 7 -10 4 -5 -3 -10 -1 -10 4 0 6 -5 11 -11 11 -5 0 -7 -4 -4
-10 3 -5 1 -10 -5 -10 -6 0 -9 -4 -6 -9 6 -9 -72 -21 -136 -21 -24 0 -38 5
-38 13 0 8 -3 7 -10 -3 -5 -8 -11 -12 -14 -9 -11 10 12 31 25 23 25 -15 52
-11 57 8 2 10 8 18 13 18 5 0 9 5 9 10 0 18 -18 11 -25 -10 -8 -26 -19 -25
-34 3 -11 22 -11 22 -7 0 3 -15 0 -20 -10 -16 -8 3 -14 9 -14 14 0 4 -7 6 -15
3 -9 -4 -14 -14 -13 -23 2 -9 -3 -15 -9 -13 -7 1 -13 -2 -13 -7 0 -5 -9 -7
-20 -4 -24 6 -16 23 11 23 10 0 19 5 19 11 0 6 -6 9 -13 6 -8 -3 -14 0 -14 6
0 7 -4 20 -8 29 -5 13 -2 15 13 11 11 -2 23 0 26 6 4 6 3 11 -3 11 -6 0 -8 7
-5 15 4 9 0 15 -10 15 -9 0 -16 -5 -16 -11 0 -7 -8 -18 -17 -25 -12 -9 -14
-16 -8 -21 10 -7 11 -17 6 -40 -2 -7 -31 53 -31 63 0 2 7 4 15 4 9 0 20 11 26
24 13 28 49 24 49 -5 0 -24 9 -24 26 -1 13 15 13 15 8 0 -3 -9 -17 -24 -30
-33 -13 -8 -24 -19 -24 -24 0 -15 35 -7 42 9 5 12 7 11 7 -3 1 -10 6 -15 11
-12 6 4 8 10 5 14 -2 5 8 7 23 5 15 -2 37 2 50 8 37 19 50 -5 18 -33 -33 -29
-33 -34 4 -37 27 -2 30 0 24 21 -4 17 -1 26 11 30 20 8 33 -22 14 -33 -7 -5
-10 -12 -7 -15 10 -10 28 4 28 21 0 8 6 14 13 14 8 0 19 11 25 25 7 15 8 25 2
25 -6 0 -10 -6 -10 -14 0 -20 -27 -27 -40 -11 -13 16 -7 45 10 45 5 0 10 -7
10 -16 0 -8 -4 -12 -10 -9 -5 3 -10 2 -10 -4 0 -24 20 -19 37 10 19 30 20 85
2 73 -5 -3 -5 -13 1 -24 7 -13 7 -21 0 -25 -6 -4 -9 -1 -8 7 2 7 -4 12 -14 10
-9 -1 -19 2 -23 8 -3 6 0 7 9 4 12 -4 16 1 18 17 2 44 3 48 12 56 5 4 7 3 3
-2 -3 -6 -2 -17 4 -25 6 -11 9 -8 9 13 0 20 -5 27 -20 27 -11 0 -20 -6 -20
-12 0 -9 -4 -8 -10 2 -9 13 -11 13 -20 0 -6 -10 -10 -11 -10 -2 0 9 -25 12
-91 12 -68 0 -90 -3 -86 -12 2 -7 11 -11 18 -9 8 2 23 5 34 8 18 3 17 2 -2 -6
-12 -5 -24 -19 -28 -30 -3 -12 -10 -19 -15 -16 -5 3 -7 11 -5 18 6 17 -26 56
-32 40 -3 -7 -14 -13 -26 -12 -21 0 -21 1 -2 9 15 6 6 9 -32 9 -31 1 -53 -3
-53 -10 0 -5 4 -7 10 -4 6 3 7 -1 4 -10 -6 -14 -9 -13 -21 5 -9 13 -23 20 -36
18 -21 -3 -22 -9 -23 -93 0 -67 3 -95 15 -108 14 -16 13 -17 -4 -11 -14 6 -17
4 -12 -9 4 -11 -2 -22 -16 -32 -12 -8 -17 -15 -10 -15 14 0 17 -146 3 -155 -6
-4 -20 5 -31 19 -11 14 -25 26 -32 26 -6 0 -2 -7 9 -15 17 -13 17 -14 2 -15
-10 0 -18 -5 -18 -11 0 -5 5 -7 10 -4 20 12 70 -18 70 -42 0 -23 -2 -23 -115
-23 l-115 0 0 120 0 120 115 0 115 0 0 130 0 130 245 0 c189 0 245 -3 245 -12z
m1370 -8 c0 -5 -4 -10 -10 -10 -5 0 -10 5 -10 10 0 6 5 10 10 10 6 0 10 -4 10
-10z m-1536 -48 c-9 -6 -10 -15 -5 -39 1 -5 5 -2 10 6 8 12 12 12 25 -2 9 -8
16 -18 16 -20 0 -7 -49 -1 -57 7 -3 3 -12 1 -20 -5 -9 -8 -13 -8 -13 -1 0 6 5
14 10 17 6 3 10 21 10 39 0 41 12 54 24 26 6 -14 6 -24 0 -28z m62 39 c-3 -5
0 -11 8 -14 18 -7 27 -77 9 -77 -7 0 -13 -5 -13 -11 0 -5 5 -7 10 -4 6 3 10
-4 10 -17 -1 -21 -2 -21 -11 -5 -6 9 -14 15 -18 13 -4 -3 -8 11 -8 30 -1 29 2
34 15 29 13 -5 14 -4 5 6 -10 9 -15 10 -27 0 -19 -16 -30 2 -22 35 4 15 13 24
27 24 11 0 18 -4 15 -9z m-268 -18 c-1 -5 4 -19 11 -32 7 -13 9 -21 4 -18 -4
3 -14 -6 -20 -19 -9 -20 -9 -26 2 -30 7 -3 16 -12 19 -20 4 -11 0 -11 -19 2
-14 9 -25 13 -25 10 0 -4 -10 -2 -21 5 -17 9 -23 8 -30 -2 -6 -10 -8 -7 -6 8
1 17 5 20 18 12 10 -5 25 -6 34 -3 22 9 39 54 25 68 -13 13 -13 26 0 26 6 0 9
-3 8 -7z m32 -3 c0 -5 -4 -10 -10 -10 -5 0 -10 5 -10 10 0 6 5 10 10 10 6 0
10 -4 10 -10z m40 4 c0 -8 -19 -13 -24 -6 -3 5 1 9 9 9 8 0 15 -2 15 -3z m26
-30 c3 -25 2 -25 -11 -8 -7 11 -9 21 -4 22 5 2 6 9 2 15 -3 7 -2 9 2 5 5 -5
10 -20 11 -34z m59 16 c-2 -11 1 -20 6 -20 6 0 7 -5 3 -11 -9 -16 -28 17 -20
37 8 21 15 17 11 -6z m161 0 c0 -11 -4 -20 -8 -20 -4 0 -8 9 -8 20 0 11 4 20
8 20 4 0 8 -9 8 -20z m-399 -12 c-3 -8 -6 -5 -6 6 -1 11 2 17 5 13 3 -3 4 -12
1 -19z m129 -13 c11 -11 12 -19 5 -32 -7 -12 -10 -14 -11 -4 0 11 -3 11 -17 0
-17 -13 -17 -13 -1 7 14 16 15 23 6 32 -7 7 -9 12 -4 12 4 0 14 -7 22 -15z
m84 -15 c0 -5 -2 -10 -4 -10 -3 0 -8 5 -11 10 -3 6 -1 10 4 10 6 0 11 -4 11
-10z m-160 -12 c0 -4 -6 -8 -14 -8 -8 0 -17 4 -20 8 -2 4 4 8 15 8 10 0 19 -4
19 -8z m224 -33 c-4 -8 -10 -15 -15 -15 -4 0 -6 7 -3 15 4 8 10 15 15 15 4 0
6 -7 3 -15z m26 -9 c0 -3 -4 -8 -10 -11 -5 -3 -10 -1 -10 4 0 6 5 11 10 11 6
0 10 -2 10 -4z m-275 -26 c13 -6 15 -9 5 -9 -13 -1 -13 -2 0 -11 23 -15 33
-12 27 10 -3 11 -2 20 3 20 10 0 21 -41 14 -52 -3 -4 -14 -3 -25 2 -18 10 -19
8 -14 -17 4 -24 4 -24 -8 5 -7 18 -16 30 -20 25 -5 -4 -5 1 -1 11 5 14 4 17
-4 12 -7 -4 -12 -2 -12 3 0 13 7 13 35 1z m80 -20 c-4 -6 -2 -17 4 -24 9 -10
7 -15 -5 -20 -9 -4 -19 -4 -22 -1 -3 3 0 5 7 5 7 0 9 9 5 25 -4 16 -2 25 6 25
6 0 8 -5 5 -10z m235 -20 c0 -5 -5 -10 -11 -10 -5 0 -7 5 -4 10 3 6 8 10 11
10 2 0 4 -4 4 -10z m-270 -30 c0 -5 -2 -10 -4 -10 -3 0 -8 5 -11 10 -3 6 -1
10 4 10 6 0 11 -4 11 -10z m137 -82 c-3 -8 -6 -5 -6 6 -1 11 2 17 5 13 3 -3 4
-12 1 -19z m0 -80 c-3 -7 -5 -2 -5 12 0 14 2 19 5 13 2 -7 2 -19 0 -25z m0
-84 c-3 -3 -12 -4 -19 -1 -8 3 -5 6 6 6 11 1 17 -2 13 -5z m1893 -445 c0 -92
4 -170 9 -173 4 -3 6 75 3 174 l-5 180 401 0 401 0 -5 -25 c-2 -13 0 -49 4
-80 5 -30 5 -55 0 -55 -4 0 -8 -15 -8 -34 l0 -35 -102 4 c-57 2 -111 4 -120 5
-10 0 -18 7 -18 15 0 8 -4 15 -9 15 -5 0 -7 -9 -4 -19 6 -24 41 -31 161 -31
l95 0 -6 -202 c-4 -112 -7 -236 -7 -275 l0 -73 -382 6 -383 5 -3 133 -3 134
-128 -5 -128 -5 -5 110 c-2 61 -2 174 0 252 4 117 7 140 19 136 8 -3 11 -1 8
4 -6 9 161 19 198 11 15 -3 17 -19 17 -172z m900 161 c0 -5 -2 -10 -4 -10 -3
0 -8 5 -11 10 -3 6 -1 10 4 10 6 0 11 -4 11 -10z m68 -15 c-6 -14 -15 -25 -20
-25 -5 0 -4 9 2 19 9 17 6 20 -18 24 -22 3 -20 4 10 6 37 1 37 0 26 -24z m42
16 c0 -5 -7 -12 -16 -15 -14 -5 -15 -4 -4 9 14 17 20 19 20 6z m40 -16 c0 -14
-2 -25 -4 -25 -2 0 -6 11 -8 25 -3 14 -1 25 3 25 5 0 9 -11 9 -25z m-170 -27
c0 -6 -6 -5 -15 2 -8 7 -15 14 -15 16 0 2 7 1 15 -2 8 -4 15 -11 15 -16z m141
-41 c-10 -9 -11 -8 -5 6 3 10 9 15 12 12 3 -3 0 -11 -7 -18z m29 -32 c0 -14
-2 -25 -4 -25 -2 0 -6 11 -8 25 -3 14 -1 25 3 25 5 0 9 -11 9 -25z m-155 -15
c3 -5 1 -10 -4 -10 -6 0 -11 5 -11 10 0 6 2 10 4 10 3 0 8 -4 11 -10z m78 -15
c6 -15 -10 -32 -20 -21 -4 3 -1 6 7 6 10 0 10 3 0 15 -7 9 -8 15 -2 15 5 0 12
-7 15 -15z m37 1 c0 -3 -4 -8 -10 -11 -5 -3 -10 -1 -10 4 0 6 5 11 10 11 6 0
10 -2 10 -4z m-106 -56 c10 -13 9 -13 -6 -1 -10 7 -17 23 -17 35 1 20 2 20 6
1 3 -11 10 -27 17 -35z m145 7 c0 -21 -1 -21 -9 -2 -12 28 -12 37 0 30 6 -3
10 -16 9 -28z m-54 13 c-3 -5 -12 -10 -18 -10 -7 0 -6 4 3 10 19 12 23 12 15
0z m-110 -40 c-3 -5 -12 -10 -18 -10 -7 0 -6 4 3 10 19 12 23 12 15 0z m443
-137 l2 -132 -82 -3 c-46 -2 -106 -2 -134 0 l-50 3 -2 126 c-1 69 1 130 4 135
3 5 63 7 132 6 l127 -3 3 -132z m-281 -450 c-3 -10 -5 -4 -5 12 0 17 2 24 5
18 2 -7 2 -21 0 -30z m-1 -59 c-4 -14 -9 -24 -12 -21 -3 2 -2 17 2 31 3 15 9
25 11 22 3 -3 2 -17 -1 -32z m-262 -33 c4 -5 -3 -7 -14 -4 -23 6 -26 13 -6 13
8 0 17 -4 20 -9z m253 -48 c-3 -10 -5 -4 -5 12 0 17 2 24 5 18 2 -7 2 -21 0
-30z m-210 -59 c-3 -3 -12 -4 -19 -1 -8 3 -5 6 6 6 11 1 17 -2 13 -5z m120 0
c-3 -3 -12 -4 -19 -1 -8 3 -5 6 6 6 11 1 17 -2 13 -5z"/>
<path d="M3370 7273 c0 -10 4 -14 8 -8 4 6 11 13 16 18 5 4 2 7 -7 7 -10 0
-17 -8 -17 -17z"/>
<path d="M3498 7283 c7 -3 16 -2 19 1 4 3 -2 6 -13 5 -11 0 -14 -3 -6 -6z"/>
<path d="M3600 7274 c0 -8 5 -12 10 -9 6 3 10 10 10 16 0 5 -4 9 -10 9 -5 0
-10 -7 -10 -16z"/>
<path d="M3640 7286 c0 -2 16 -6 35 -8 19 -2 35 0 35 4 0 4 -16 8 -35 8 -19 0
-35 -2 -35 -4z"/>
<path d="M3640 7266 c0 -2 7 -7 16 -10 8 -3 12 -2 9 4 -6 10 -25 14 -25 6z"/>
<path d="M3450 7250 c0 -5 5 -10 11 -10 5 0 7 5 4 10 -3 6 -8 10 -11 10 -2 0
-4 -4 -4 -10z"/>
<path d="M3507 7239 c7 -7 15 -10 18 -7 3 3 -2 9 -12 12 -14 6 -15 5 -6 -5z"/>
<path d="M3810 7190 c-9 -6 -10 -10 -3 -10 6 0 15 5 18 10 8 12 4 12 -15 0z"/>
<path d="M3495 7120 c-3 -6 1 -7 9 -4 18 7 21 14 7 14 -6 0 -13 -4 -16 -10z"/>
<path d="M3468 7093 c7 -3 16 -2 19 1 4 3 -2 6 -13 5 -11 0 -14 -3 -6 -6z"/>
<path d="M3548 7093 c7 -3 16 -2 19 1 4 3 -2 6 -13 5 -11 0 -14 -3 -6 -6z"/>
<path d="M6260 7259 c0 -16 4 -28 9 -25 5 3 7 15 4 26 -6 22 7 26 25 8 8 -8
12 -8 12 -1 0 11 -22 23 -41 23 -5 0 -9 -14 -9 -31z"/>
<path d="M6620 7279 c0 -5 5 -7 10 -4 6 3 10 8 10 11 0 2 -4 4 -10 4 -5 0 -10
-5 -10 -11z"/>
<path d="M6260 7204 c0 -8 5 -12 10 -9 6 3 10 10 10 16 0 5 -4 9 -10 9 -5 0
-10 -7 -10 -16z"/>
<path d="M6290 7200 c0 -5 5 -10 11 -10 5 0 7 5 4 10 -3 6 -8 10 -11 10 -2 0
-4 -4 -4 -10z"/>
<path d="M6563 7093 c9 -2 23 -2 30 0 6 3 -1 5 -18 5 -16 0 -22 -2 -12 -5z"/>
<path d="M4230 7046 c0 -9 30 -14 35 -6 4 6 -3 10 -14 10 -12 0 -21 -2 -21 -4z"/>
<path d="M5756 6757 c3 -10 9 -15 12 -12 3 3 0 11 -7 18 -10 9 -11 8 -5 -6z"/>
<path d="M5880 6750 c0 -5 5 -10 11 -10 5 0 7 5 4 10 -3 6 -8 10 -11 10 -2 0
-4 -4 -4 -10z"/>
<path d="M5579 6734 c-7 -8 -7 -14 1 -19 8 -5 8 -11 -1 -21 -9 -11 -7 -16 12
-23 18 -6 27 -4 36 8 6 9 9 20 6 25 -3 5 -10 1 -15 -8 -5 -9 -14 -16 -21 -16
-7 0 -6 4 3 10 13 8 12 11 -5 24 -11 9 -15 16 -9 16 5 0 14 -4 20 -9 5 -6 16
-5 27 3 16 12 15 14 -13 18 -17 3 -35 -1 -41 -8z"/>
<path d="M5660 6730 c0 -5 7 -10 16 -10 8 0 12 5 9 10 -3 6 -10 10 -16 10 -5
0 -9 -4 -9 -10z"/>
<path d="M5712 6723 c6 -7 14 -13 19 -13 5 0 9 6 9 13 0 7 -9 13 -19 13 -15 0
-17 -3 -9 -13z"/>
<path d="M5750 6718 c0 -11 28 -10 35 1 3 6 -4 9 -15 8 -11 -1 -20 -5 -20 -9z"/>
<path d="M5918 6723 c7 -3 16 -2 19 1 4 3 -2 6 -13 5 -11 0 -14 -3 -6 -6z"/>
<path d="M5746 6683 c-10 -11 -7 -65 4 -58 6 3 10 -1 10 -9 0 -16 12 -21 23
-10 3 4 -3 14 -15 24 -20 16 -18 47 3 35 5 -4 9 -2 9 3 0 12 -26 23 -34 15z"/>
<path d="M5632 6650 c0 -14 2 -19 5 -12 2 6 2 18 0 25 -3 6 -5 1 -5 -13z"/>
<path d="M5781 6651 c-8 -5 -9 -11 -3 -15 5 -3 12 1 16 9 6 17 6 18 -13 6z"/>
<path d="M5710 6640 c0 -5 5 -10 10 -10 6 0 10 5 10 10 0 6 -4 10 -10 10 -5 0
-10 -4 -10 -10z"/>
<path d="M5960 6645 c0 -5 5 -17 10 -25 5 -8 10 -10 10 -5 0 6 -5 17 -10 25
-5 8 -10 11 -10 5z"/>
<path d="M5992 6630 c0 -14 2 -19 5 -12 2 6 2 18 0 25 -3 6 -5 1 -5 -13z"/>
<path d="M5890 6616 c0 -2 7 -7 16 -10 8 -3 12 -2 9 4 -6 10 -25 14 -25 6z"/>
<path d="M5780 6590 c0 -5 5 -10 10 -10 6 0 10 5 10 10 0 6 -4 10 -10 10 -5 0
-10 -4 -10 -10z"/>
<path d="M5757 6583 c-4 -3 -7 -11 -7 -17 0 -6 5 -5 12 2 6 6 9 14 7 17 -3 3
-9 2 -12 -2z"/>
<path d="M5977 6267 c-10 -27 33 -61 48 -37 3 6 -1 7 -9 4 -9 -3 -16 -1 -16 5
0 6 5 11 10 11 6 0 10 8 9 18 0 10 -3 12 -6 5 -2 -7 -9 -13 -14 -13 -6 0 -7 5
-4 10 3 6 2 10 -3 10 -6 0 -12 -6 -15 -13z"/>
<path d="M6065 6259 c-4 -6 -13 -8 -19 -6 -9 4 -11 -2 -8 -19 5 -25 22 -23 22
3 0 13 2 14 18 2 15 -13 16 -12 4 3 -10 13 -10 17 0 21 9 4 9 6 1 6 -6 1 -15
-4 -18 -10z"/>
<path d="M6223 6263 c11 -3 16 -11 13 -19 -3 -8 -1 -14 4 -14 6 0 10 9 10 20
0 14 -6 20 -22 19 -19 -1 -19 -2 -5 -6z"/>
<path d="M6123 6230 c-1 -11 2 -20 8 -20 5 0 9 9 9 20 0 11 -4 20 -8 20 -4 0
-8 -9 -9 -20z"/>
<path d="M6153 6234 c-3 -8 -2 -19 3 -24 5 -5 9 1 9 16 0 28 -3 30 -12 8z"/>
<path d="M6187 6243 c-11 -17 13 -28 26 -13 9 10 9 11 0 6 -6 -3 -13 -1 -15 6
-3 9 -6 9 -11 1z"/>
<path d="M5850 6223 c0 -11 5 -24 12 -31 9 -9 6 -12 -15 -12 -21 0 -27 5 -28
23 -1 17 -2 18 -6 4 -5 -20 13 -48 30 -44 6 1 13 -6 15 -15 2 -10 -1 -18 -7
-18 -6 0 -11 4 -11 9 0 5 -7 11 -15 15 -10 4 -15 -1 -15 -14 0 -11 5 -20 11
-20 5 0 7 6 3 13 -4 6 2 3 13 -8 11 -11 19 -27 18 -36 -2 -9 1 -22 6 -30 7
-11 9 -10 9 6 1 18 1 19 11 3 8 -15 23 -18 82 -17 40 0 65 3 57 7 -10 5 -15
23 -16 57 -1 27 -7 51 -13 53 -8 3 -6 9 6 17 10 7 15 16 12 19 -3 4 -22 -9
-43 -28 -20 -20 -43 -33 -50 -30 -8 3 -18 -7 -26 -26 -15 -37 -29 -23 -22 23
4 27 6 29 13 12 8 -20 8 -20 8 0 1 11 -6 31 -15 43 -8 12 -12 22 -9 22 10 0
36 -28 35 -37 -3 -17 29 -28 42 -15 10 10 10 14 -1 21 -11 7 -11 9 0 13 8 3 9
9 4 17 -6 11 -10 10 -17 -3 -9 -15 -12 -15 -44 4 -32 21 -34 21 -34 3z m130
-69 c0 -8 -4 -13 -9 -9 -5 3 -12 1 -16 -5 -3 -5 2 -10 12 -10 12 0 19 -8 20
-20 1 -11 -2 -18 -6 -15 -5 2 -14 -1 -20 -9 -7 -8 -21 -12 -31 -9 -11 3 -20 0
-20 -6 0 -6 -4 -11 -8 -11 -5 0 -9 7 -9 15 0 8 4 15 9 15 5 0 6 5 2 11 -3 6 5
3 20 -6 24 -16 26 -16 26 0 0 9 -9 19 -20 22 -18 5 -16 8 13 28 40 29 37 28
37 9z m10 -84 c0 -5 -7 -10 -16 -10 -8 0 -12 5 -9 10 3 6 10 10 16 10 5 0 9
-4 9 -10z"/>
<path d="M6237 6201 c-4 -17 -3 -21 5 -13 5 5 8 16 6 23 -3 8 -7 3 -11 -10z"/>
<path d="M6055 6190 c3 -5 8 -10 11 -10 2 0 4 5 4 10 0 6 -5 10 -11 10 -5 0
-7 -4 -4 -10z"/>
<path d="M6080 6190 c0 -5 5 -10 11 -10 5 0 7 5 4 10 -3 6 -8 10 -11 10 -2 0
-4 -4 -4 -10z"/>
<path d="M6120 6189 c0 -5 5 -7 10 -4 6 3 10 8 10 11 0 2 -4 4 -10 4 -5 0 -10
-5 -10 -11z"/>
<path d="M6186 6192 c-2 -4 -1 -14 4 -22 5 -8 6 -27 3 -44 -4 -19 -2 -27 4
-23 6 4 17 -1 24 -10 12 -14 11 -15 -9 -9 -12 4 -22 4 -22 -1 0 -12 38 -14 45
-2 4 5 10 7 14 5 4 -3 8 5 8 17 2 20 1 21 -11 5 -12 -17 -14 -17 -32 3 -14 16
-15 22 -5 28 10 7 10 10 1 16 -8 5 -8 10 -2 14 6 4 5 11 -4 18 -7 7 -15 9 -18
5z"/>
<path d="M6014 6174 c3 -9 6 -21 6 -27 0 -16 48 -38 56 -26 3 5 -3 9 -12 9
-13 0 -15 3 -8 10 14 14 46 1 40 -16 -3 -8 -1 -14 4 -14 6 0 10 8 10 18 0 13
2 14 9 3 7 -10 12 -11 27 -1 12 7 13 10 4 7 -9 -3 -24 1 -35 9 -18 14 -18 14
2 14 11 0 27 7 34 17 13 15 12 15 -11 3 -50 -26 -60 -30 -60 -22 0 4 -9 8 -19
9 -14 1 -18 -3 -14 -14 4 -11 3 -14 -6 -9 -6 4 -9 16 -6 27 5 14 2 19 -10 19
-12 0 -15 -5 -11 -16z"/>
<path d="M6160 6161 c0 -6 4 -12 8 -15 5 -3 9 1 9 9 0 8 -4 15 -9 15 -4 0 -8
-4 -8 -9z"/>
<path d="M6230 6160 c0 -5 5 -10 11 -10 5 0 7 5 4 10 -3 6 -8 10 -11 10 -2 0
-4 -4 -4 -10z"/>
<path d="M6010 6113 c0 -19 21 -27 33 -13 9 10 9 11 -2 5 -8 -4 -17 -2 -22 6
-6 9 -9 10 -9 2z"/>
<path d="M6150 6110 c0 -6 7 -10 15 -10 8 0 15 2 15 4 0 2 -7 6 -15 10 -8 3
-15 1 -15 -4z"/>
<path d="M5814 6098 c1 -7 11 -15 21 -16 11 -3 15 0 10 7 -3 6 -10 9 -15 6 -4
-3 -11 0 -13 5 -3 6 -4 5 -3 -2z"/>
<path d="M6110 6100 c-9 -6 -10 -10 -3 -10 6 0 15 5 18 10 8 12 4 12 -15 0z"/>
<path d="M6068 6075 c-4 -17 -1 -25 8 -25 8 0 13 8 11 20 -5 31 -14 33 -19 5z"/>
<path d="M6130 6081 c-8 -6 -18 -7 -22 -5 -4 3 -5 -2 -2 -10 5 -12 8 -12 25 2
26 23 26 29 -1 13z"/>
<path d="M6146 6065 c-11 -8 -15 -15 -9 -15 6 0 16 7 23 15 16 19 11 19 -14 0z"/>
<path d="M5810 6060 c0 -5 9 -10 21 -10 11 0 17 5 14 10 -3 6 -13 10 -21 10
-8 0 -14 -4 -14 -10z"/>
<path d="M4435 6100 c4 -6 11 -8 16 -5 14 9 11 15 -7 15 -8 0 -12 -5 -9 -10z"/>
<path d="M4486 6073 c-6 -14 -5 -15 5 -6 7 7 10 15 7 18 -3 3 -9 -2 -12 -12z"/>
<path d="M3860 5994 c0 -29 11 -37 25 -17 13 18 86 27 96 11 3 -5 11 -2 18 6
11 13 4 15 -53 13 -38 -1 -66 -6 -66 -12 0 -5 -5 -3 -10 5 -8 12 -10 11 -10
-6z"/>
<path d="M3912 5935 c1 -14 6 -25 10 -25 4 0 7 11 6 25 -1 14 -6 25 -10 25 -4
0 -7 -11 -6 -25z"/>
<path d="M3967 5941 c-4 -17 -3 -21 5 -13 5 5 8 16 6 23 -3 8 -7 3 -11 -10z"/>
<path d="M3869 5938 c0 -7 -2 -21 -4 -30 -2 -10 3 -18 10 -18 8 0 12 11 11 30
-1 29 -15 43 -17 18z"/>
<path d="M4005 5940 c-3 -5 -1 -10 4 -10 6 0 11 5 11 10 0 6 -2 10 -4 10 -3 0
-8 -4 -11 -10z"/>
<path d="M4044 5935 c18 -13 15 -35 -5 -35 -6 0 -7 5 -4 10 3 6 1 10 -5 10
-21 0 -4 -25 18 -26 31 -2 31 42 0 49 -22 6 -22 5 -4 -8z"/>
<path d="M3947 5893 c3 -7 11 -13 19 -13 8 0 14 6 14 13 0 7 -8 13 -19 13 -11
0 -17 -5 -14 -13z"/>
<path d="M4061 5864 c0 -11 3 -14 6 -6 3 7 2 16 -1 19 -3 4 -6 -2 -5 -13z"/>
<path d="M3916 5855 c4 -8 8 -15 10 -15 2 0 4 7 4 15 0 8 -4 15 -10 15 -5 0
-7 -7 -4 -15z"/>
<path d="M3950 5860 c-8 -5 -12 -12 -9 -15 4 -3 12 1 19 10 14 17 11 19 -10 5z"/>
<path d="M3866 5825 c-3 -9 -2 -13 3 -10 6 3 14 -3 20 -12 8 -14 12 -16 22 -5
16 15 43 16 33 0 -4 -7 -3 -8 5 -4 9 6 9 11 1 21 -12 15 -40 9 -40 -8 0 -5 -8
0 -19 12 -16 18 -20 19 -25 6z"/>
<path d="M3985 5820 c3 -5 10 -10 16 -10 5 0 9 5 9 10 0 6 -7 10 -16 10 -8 0
-12 -4 -9 -10z"/>
<path d="M4020 5800 l-25 -8 28 -1 c15 -1 27 4 27 9 0 6 -1 10 -2 9 -2 -1 -14
-5 -28 -9z"/>
<path d="M4437 6225 c-4 -8 3 -10 19 -7 29 5 30 8 5 15 -11 3 -22 -1 -24 -8z"/>
<path d="M6760 5427 c0 -54 4 -87 10 -87 10 0 4 158 -6 169 -2 2 -4 -35 -4
-82z"/>
<path d="M6117 5493 c-4 -6 3 -19 16 -29 12 -11 17 -12 11 -4 -6 8 -13 22 -16
30 -3 9 -7 10 -11 3z"/>
<path d="M6020 5449 c0 -5 5 -7 10 -4 6 3 10 8 10 11 0 2 -4 4 -10 4 -5 0 -10
-5 -10 -11z"/>
<path d="M6007 5423 c-4 -3 -7 -11 -7 -17 0 -6 5 -5 12 2 6 6 9 14 7 17 -3 3
-9 2 -12 -2z"/>
<path d="M6057 5423 c-4 -3 -7 -11 -7 -17 0 -6 5 -5 12 2 6 6 9 14 7 17 -3 3
-9 2 -12 -2z"/>
<path d="M6090 5404 c0 -8 5 -12 10 -9 6 4 8 11 5 16 -9 14 -15 11 -15 -7z"/>
<path d="M6190 5405 c0 -8 2 -15 4 -15 2 0 6 7 10 15 3 8 1 15 -4 15 -6 0 -10
-7 -10 -15z"/>
<path d="M5990 5373 c0 -6 6 -15 13 -19 6 -4 9 -4 5 1 -4 4 0 14 10 21 16 12
15 13 -5 11 -13 -1 -23 -7 -23 -14z"/>
<path d="M6052 5365 c-11 -12 -10 -15 3 -15 8 0 15 5 15 11 0 6 7 9 15 5 8 -3
15 -1 15 4 0 15 -33 11 -48 -5z"/>
<path d="M6012 5323 c-7 -10 -10 -12 -7 -5 3 6 1 12 -4 12 -6 0 -10 -11 -9
-24 2 -19 5 -22 15 -14 10 8 13 6 14 -8 0 -18 1 -18 8 1 5 11 6 27 3 35 -5 13
-4 13 14 0 18 -14 18 -14 5 3 -7 9 -16 17 -20 17 -3 0 -12 -8 -19 -17z"/>
<path d="M6087 5326 c-6 -15 1 -26 15 -26 5 0 6 5 3 10 -3 6 -1 10 5 10 6 0 8
5 5 10 -9 14 -22 12 -28 -4z"/>
<path d="M6183 5324 c-7 -7 -13 -18 -13 -24 0 -6 -5 -8 -10 -5 -6 4 -7 11 -4
17 4 7 2 8 -5 4 -9 -6 -9 -11 0 -22 16 -20 24 -18 38 12 14 31 11 38 -6 18z"/>
<path d="M6195 5299 c-4 -6 -5 -12 -2 -15 2 -3 7 2 10 11 7 17 1 20 -8 4z"/>
<path d="M6040 5286 c0 -2 7 -7 16 -10 8 -3 12 -2 9 4 -6 10 -25 14 -25 6z"/>
<path d="M6231 5124 c0 -11 3 -14 6 -6 3 7 2 16 -1 19 -3 4 -6 -2 -5 -13z"/>
<path d="M6231 5084 c0 -11 3 -14 6 -6 3 7 2 16 -1 19 -3 4 -6 -2 -5 -13z"/>
<path d="M6231 5044 c0 -11 3 -14 6 -6 3 7 2 16 -1 19 -3 4 -6 -2 -5 -13z"/>
<path d="M6298 5003 c7 -3 16 -2 19 1 4 3 -2 6 -13 5 -11 0 -14 -3 -6 -6z"/>
<path d="M5490 7520 c0 -5 4 -10 9 -10 6 0 13 5 16 10 3 6 -1 10 -9 10 -9 0
-16 -4 -16 -10z"/>
<path d="M5330 7489 c0 -5 5 -7 10 -4 6 3 10 8 10 11 0 2 -4 4 -10 4 -5 0 -10
-5 -10 -11z"/>
<path d="M5445 7470 c-3 -5 0 -7 8 -4 8 3 18 1 22 -5 11 -18 45 -13 45 7 0 14
-2 15 -10 2 -8 -12 -13 -13 -30 -2 -24 15 -27 15 -35 2z"/>
<path d="M5507 7419 c4 -13 8 -18 11 -10 2 7 -1 18 -6 23 -8 8 -9 4 -5 -13z"/>
<path d="M5427 7409 c7 -7 15 -10 18 -7 3 3 -2 9 -12 12 -14 6 -15 5 -6 -5z"/>
<path d="M5465 7410 c3 -5 8 -10 11 -10 2 0 4 5 4 10 0 6 -5 10 -11 10 -5 0
-7 -4 -4 -10z"/>
<path d="M5375 7390 c-3 -6 1 -7 9 -4 18 7 21 14 7 14 -6 0 -13 -4 -16 -10z"/>
<path d="M5320 7365 c-11 -13 -10 -14 4 -9 9 3 16 10 16 15 0 13 -6 11 -20 -6z"/>
<path d="M5396 7367 c3 -10 9 -15 12 -12 3 3 0 11 -7 18 -10 9 -11 8 -5 -6z"/>
<path d="M5448 7353 c7 -3 16 -2 19 1 4 3 -2 6 -13 5 -11 0 -14 -3 -6 -6z"/>
<path d="M5311 7333 c-1 -17 16 -25 25 -12 4 7 3 9 -4 5 -5 -3 -13 0 -15 6 -4
9 -6 10 -6 1z"/>
<path d="M5510 7279 c0 -5 5 -7 10 -4 6 3 10 8 10 11 0 2 -4 4 -10 4 -5 0 -10
-5 -10 -11z"/>
<path d="M5320 7109 c0 -5 5 -7 10 -4 6 3 10 8 10 11 0 2 -4 4 -10 4 -5 0 -10
-5 -10 -11z"/>
</g>
</svg>
